# xmcd CD database file
#
# Track frame offsets:
#	182
#	14197
#	28592
#	44992
#	59822
#	78282
#	94762
#	110765
#	125020
#	138402
#
# Disc length: 2060 seconds
#
# Revision: 2
# Processed by: cddbd v1.5.1PL0 Copyright (c) Steve Scherf et al.
# Submitted via: CDex 1.40Release
#
DISCID=99080a0a
DTITLE=Various Artist - Country Love Songs Vol 3
DYEAR=1993
DGENRE=Country
TTITLE0=Travis Randy - Forever Together
TTITLE1=White Michael - Professional Fool
TTITLE2=Tillis Pam - One Of Those Things
TTITLE3=Welch Kevin - Something "Bout You
TTITLE4=Rogers Kenny - Lay My Body Down
TTITLE5=Dunn Holly - Golden Years
TTITLE6=Morris Gary - The Love She Found In Me
TTITLE7=Crowell Rodney - I Didn't Know That I Coud Lose You
TTITLE8=Anderson John - 1959
TTITLE9=Forester Sisters - Love Will
EXTD=YEAR: 1993 ID3G: 2
EXTT0=
EXTT1=
EXTT2=
EXTT3=
EXTT4=
EXTT5=
EXTT6=
EXTT7=
EXTT8=
EXTT9=
PLAYORDER=
